PathFileType	4	(x/y/z)	S09_P20_T28
DataRate	CameraRate	NumFrames	NumMarkers	Units	OrigDataRate	OrigDataStartFrame	OrigNumFrames
240	240	4	51	mm	240	156	414
Frame#	Time	Sternum			R.Acromium			L.Acromium			Top.Head			R.ASIS			L.ASIS			R.PSIS			L.PSIS			R.Great.Tro			L.Great.Tro			R.Iliac.Crest			L.Iliac.Crest			V.Sacral			R.Thigh.Upper.Post			R.Thigh.Lower.Ant			R.Thigh.Lower.Post			R.Thigh.Upper.Ant			R.Knee.Lat			R.Knee.Med			R.Shank.Upper.Post			R.Shank.Lower.Ant			R.Shank.Lower.Post			R.Shank.Upper.Ant			R.Ankle.Lat			R.Ankle.Med			R.Heel.Upper			R.Heel.Med			R.Heel.Lat			R.Toe.Lat			R.Toe.Med			R.Toe.Tip			L.Thigh.Upper.Post			L.Thigh.Lower.Ant			L.Thigh.Lower.Post			L.Thigh.Upper.Ant			L.Knee.Lat			L.Knee.Med			L.Shank.Upper.Post			L.Shank.Lower.Ant			L.Shank.Lower.Post			L.Shank.Upper.Ant			L.Ankle.Lat			L.Ankle.Med			L.Heel.Upper			L.Heel.Med			L.Heel.Lat			L.Toe.Lat			L.Toe.Med			L.Toe.Tip			Cervical.Spine			Back			
		X1	Y1	Z1	X2	Y2	Z2	X3	Y3	Z3	X4	Y4	Z4	X5	Y5	Z5	X6	Y6	Z6	X7	Y7	Z7	X8	Y8	Z8	X9	Y9	Z9	X10	Y10	Z10	X11	Y11	Z11	X12	Y12	Z12	X13	Y13	Z13	X14	Y14	Z14	X15	Y15	Z15	X16	Y16	Z16	X17	Y17	Z17	X18	Y18	Z18	X19	Y19	Z19	X20	Y20	Z20	X21	Y21	Z21	X22	Y22	Z22	X23	Y23	Z23	X24	Y24	Z24	X25	Y25	Z25	X26	Y26	Z26	X27	Y27	Z27	X28	Y28	Z28	X29	Y29	Z29	X30	Y30	Z30	X31	Y31	Z31	X32	Y32	Z32	X33	Y33	Z33	X34	Y34	Z34	X35	Y35	Z35	X36	Y36	Z36	X37	Y37	Z37	X38	Y38	Z38	X39	Y39	Z39	X40	Y40	Z40	X41	Y41	Z41	X42	Y42	Z42	X43	Y43	Z43	X44	Y44	Z44	X45	Y45	Z45	X46	Y46	Z46	X47	Y47	Z47	X48	Y48	Z48	X49	Y49	Z49	X50	Y50	Z50	X51	Y51	Z51	

156	0.64583	-544.3	1178.7	348.92	-682.48	1424.9	484.72	-685.78	1421.8	183.66	-668.17	1731.8	331.74	-581.17	1013	438.9	-613.09	1009	195.49	-811.18	1029.6	391.69	-815.44	1034.8	303.41	-646.72	925.2	518.85	-701.36	919.46	135.89	-669.35	1088.3	496.25	-720.89	1105.8	175.27	-831.94	996.36	346.31	-595.16	681.09	486.5	-507.21	602.4	430.28	-583.07	592.64	453.77	-525.31	685.16	465.01	-511.86	524.63	422.55	-529.76	519.44	301.3	-557.43	339.17	425.26	-482.43	290.3	406.8	-548.79	263.93	411.64	-496.39	361.7	422.49	-495.19	87.914	383.78	-470.18	105.51	299.29	-555.64	72.917	331.76	-541.94	42.583	302.65	-550.38	41.679	366.89	-388.81	43.255	417.9	-344.43	57.349	313.25	-300.63	80.427	358.04	-785.13	670.31	196.27	-715	565.01	176.66	-784.82	583.9	207.97	-721.81	653.22	159.69	-749.85	493.5	188.57	-693.61	488.42	311.48	-865.75	425.55	196.44	-876.44	315.88	202.84	-915.27	367.54	209.81	-826.95	374.9	190.47	-1033.4	202.16	245.99	-1006.3	191.59	334.7	-1093.9	235.36	307.13	-1099.7	217.45	345.19	-1121	215.92	286.69	-1038.9	69.335	235.67	-995.07	57.494	341.51	-962.44	37.399	284.04	-771.08	1473.7	345.45	-812.22	1206	333.59
157	0.65	-538.61	1179.2	349.09	-676.59	1425.3	485.06	-680.45	1422.1	184.03	-662.74	1732.1	331.86	-575.34	1013.7	439.14	-607.33	1009.1	195.76	-805.37	1029.9	391.88	-809.67	1034.5	303.56	-640.84	926.07	519.31	-694.99	919.25	136.15	-663.47	1089	496.5	-715.29	1105.7	175.48	-826.04	996.25	346.59	-589.45	681.61	487.1	-501.68	602.85	430.65	-577.49	593.16	454.33	-519.63	685.62	465.4	-506.62	524.79	422.76	-524.43	519.74	301.67	-553.73	339.56	425.7	-479.24	290.05	406.88	-545.84	264.26	411.99	-492.5	361.56	422.66	-494.43	87.858	383.81	-469.33	105.27	299.31	-555.14	73.236	331.82	-541.71	42.831	302.71	-550.12	41.96	366.92	-388.44	42.634	417.95	-343.91	55.925	312.96	-299.63	78.411	357.76	-776.64	669.27	195.46	-705.7	564.67	174.92	-775.04	582.73	206.67	-713.35	652.89	158.46	-739.91	493.29	186.41	-682.64	487.38	309.14	-855.9	426.91	194.89	-868	317.34	200.83	-906.06	369.48	208.31	-817.82	375.77	188.4	-1025.8	205.28	244.38	-998.51	194.32	332.94	-1084.3	241.05	305.49	-1090.5	223.64	343.73	-1112.2	222.32	285.32	-1035.7	72.095	235.14	-991.57	59.626	340.72	-960.47	37.126	283.3	-765.53	1473.9	345.95	-806.49	1206.3	334.1
158	0.65417	-532.97	1179.7	349.23	-670.71	1425.7	485.37	-675.12	1422.5	184.4	-657.31	1732.4	331.98	-569.57	1014.3	439.38	-601.6	1009.2	196.03	-799.63	1030.1	392.04	-803.95	1034.3	303.69	-635.05	926.96	519.77	-688.68	919.05	136.41	-657.66	1089.6	496.72	-709.72	1105.5	175.68	-820.2	996.19	346.86	-583.87	682.13	487.69	-496.3	603.26	431.03	-572.07	593.66	454.87	-514.08	686.05	465.83	-501.56	524.93	422.96	-519.17	520.03	302.03	-550.18	339.95	426.12	-476.19	289.81	406.97	-543.01	264.6	412.3	-488.76	361.42	422.81	-493.74	87.822	383.84	-468.57	105.06	299.32	-554.7	73.522	331.86	-541.5	43.064	302.75	-549.88	42.219	366.94	-388.14	42.114	418.01	-343.47	54.654	312.69	-298.75	76.572	357.51	-768.13	668.27	194.65	-696.37	564.4	173.17	-765.14	581.57	205.37	-704.89	652.62	157.23	-729.89	493.14	184.23	-671.57	486.42	306.8	-845.88	428.29	193.28	-859.37	318.83	198.81	-896.66	371.43	206.77	-808.52	376.68	186.31	-1017.9	208.42	242.73	-990.57	197.1	331.16	-1074.4	246.67	303.75	-1081	229.76	342.15	-1103	228.66	283.83	-1032.1	75.009	234.52	-987.7	61.913	339.84	-958.11	36.909	282.45	-759.99	1474.3	346.45	-800.78	1206.6	334.59
159	0.65833	-527.37	1180.2	349.34	-664.83	1426.1	485.67	-669.79	1422.8	184.75	-651.88	1732.8	332.11	-563.85	1015	439.65	-595.91	1009.4	196.31	-793.95	1030.4	392.18	-798.28	1034	303.8	-629.35	927.87	520.21	-682.42	918.87	136.68	-651.94	1090.3	496.92	-704.18	1105.4	175.85	-814.42	996.17	347.11	-578.43	682.62	488.26	-491.09	603.62	431.41	-566.83	594.15	455.38	-508.68	686.43	466.27	-496.68	525.06	423.17	-514.03	520.31	302.39	-546.77	340.34	426.5	-473.28	289.58	407.06	-540.33	264.95	412.59	-485.18	361.29	422.97	-493.11	87.803	383.86	-467.89	104.89	299.31	-554.3	73.78	331.89	-541.3	43.281	302.79	-549.66	42.46	366.95	-387.89	41.683	418.07	-343.09	53.522	312.42	-297.96	74.901	357.28	-759.6	667.32	193.85	-687.02	564.2	171.42	-755.14	580.43	204.09	-696.41	652.4	156.02	-719.78	493.06	182.04	-660.43	485.57	304.47	-835.71	429.69	191.63	-850.55	320.35	196.8	-887.09	373.39	205.2	-799.05	377.61	184.23	-1009.8	211.6	241.04	-982.45	199.92	329.36	-1064.2	252.2	301.93	-1071.3	235.75	340.47	-1093.6	234.88	282.23	-1028	78.061	233.8	-983.42	64.338	338.84	-955.32	36.769	281.48	-754.46	1474.6	346.93	-795.1	1207	335.05
